G75*
G70*
%OFA0B0*%
%FSLAX24Y24*%
%IPPOS*%
%LPD*%
%AMOC8*
5,1,8,0,0,1.08239X$1,22.5*
%
%ADD10R,0.0516X0.0516*%
%ADD11C,0.0516*%
%ADD12R,0.0630X0.0630*%
%ADD13C,0.0630*%
%ADD14C,0.0490*%
%ADD15C,0.0885*%
%ADD16C,0.0640*%
%ADD17C,0.0476*%
%ADD18C,0.0660*%
%ADD19C,0.0945*%
%ADD20C,0.0240*%
D10*
X003113Y011947D03*
X008413Y011947D03*
D11*
X007413Y011947D03*
X002113Y011947D03*
D12*
X003763Y013097D03*
X002113Y017247D03*
X004763Y018397D03*
X007413Y017247D03*
D13*
X006763Y016097D03*
X005763Y016097D03*
X004763Y016097D03*
X003763Y016097D03*
X003113Y017247D03*
X004763Y013097D03*
X005763Y013097D03*
X006763Y013097D03*
X008413Y017247D03*
X005763Y018397D03*
D14*
X006263Y016797D03*
X007947Y015204D03*
X007947Y013990D03*
X009479Y012704D03*
X009479Y016490D03*
X006263Y012357D03*
X004263Y012357D03*
X002579Y013990D03*
X002579Y015204D03*
X001047Y016490D03*
X001047Y012704D03*
X004263Y016797D03*
D15*
X000863Y014597D03*
D16*
X008663Y014597D03*
D17*
X005637Y011161D03*
X004889Y011161D03*
D18*
X001863Y014597D03*
X000763Y015597D03*
X000763Y013597D03*
X009763Y013597D03*
X009763Y014597D03*
X009763Y015597D03*
D19*
X003513Y010217D03*
X007013Y010217D03*
X007013Y018977D03*
X003513Y018977D03*
D20*
X003563Y017697D02*
X005363Y017697D01*
X005763Y018397D01*
X006963Y018397D01*
X007013Y018977D01*
X006963Y018397D02*
X007963Y017997D01*
X008313Y017647D01*
X008413Y017247D01*
X008663Y015997D01*
X008663Y014597D01*
X009763Y014597D01*
X008663Y014597D02*
X008663Y013597D01*
X008163Y013097D01*
X006763Y013097D01*
X006763Y013397D01*
X006263Y013897D01*
X005263Y013897D01*
X004763Y013397D01*
X004763Y013097D01*
X004263Y012357D01*
X004889Y011771D01*
X004889Y011161D01*
X003946Y010217D01*
X003513Y010217D01*
X003513Y010238D01*
X001959Y011792D01*
X002113Y011947D01*
X002113Y011947D01*
X001959Y011792D02*
X001047Y012704D01*
X001863Y013197D02*
X003113Y011947D01*
X001863Y013197D02*
X001863Y014597D01*
X006740Y014597D01*
X007947Y013990D01*
X009171Y012704D02*
X008413Y011947D01*
X008413Y011617D01*
X007013Y010217D01*
X006581Y010217D01*
X005637Y011161D01*
X003763Y016097D02*
X002363Y016097D01*
X001863Y015597D01*
X001863Y014597D01*
X000863Y014597D01*
X003113Y017247D02*
X003563Y017697D01*
X009171Y012704D02*
X009479Y012704D01*
M02*
