%
M48
M72
T01C0.0236
T02C0.0250
T03C0.0276
T04C0.0320
T05C0.0400
T06C0.0590
T07C0.0630
%
T01
X4889Y11161
X5637Y11161
T02
X6263Y12357
X7947Y13990
X7947Y15204
X9479Y16490
X9479Y12704
X6263Y16797
X4263Y16797
X2579Y15204
X2579Y13990
X1047Y12704
X1047Y16490
X4263Y12357
T03
X3113Y11947
X2113Y11947
X7413Y11947
X8413Y11947
T04
X6763Y13097
X5763Y13097
X4763Y13097
X3763Y13097
X3763Y16097
X3113Y17247
X2113Y17247
X4763Y18397
X5763Y18397
X5763Y16097
X4763Y16097
X6763Y16097
X7413Y17247
X8413Y17247
T05
X9763Y15597
X9763Y14597
X9763Y13597
X8663Y14597
X1863Y14597
X763Y15597
X763Y13597
T06
X863Y14597
T07
X3513Y10217
X7013Y10217
X7013Y18977
X3513Y18977
M30
