G75*
G70*
%OFA0B0*%
%FSLAX24Y24*%
%IPPOS*%
%LPD*%
%AMOC8*
5,1,8,0,0,1.08239X$1,22.5*
%
%ADD10C,0.0050*%
%ADD11C,0.0060*%
%ADD12C,0.0080*%
D10*
X004923Y010202D02*
X004923Y010472D01*
X005013Y010382D01*
X005103Y010472D01*
X005103Y010202D01*
X005217Y010202D02*
X005307Y010202D01*
X005262Y010202D02*
X005262Y010472D01*
X005217Y010472D02*
X005307Y010472D01*
X005414Y010427D02*
X005414Y010247D01*
X005459Y010202D01*
X005549Y010202D01*
X005594Y010247D01*
X005594Y010427D02*
X005549Y010472D01*
X005459Y010472D01*
X005414Y010427D01*
X005563Y011957D02*
X004963Y011957D01*
X005094Y012212D02*
X005049Y012257D01*
X005049Y012437D01*
X005094Y012482D01*
X005184Y012482D01*
X005229Y012437D01*
X005344Y012482D02*
X005344Y012212D01*
X005229Y012257D02*
X005184Y012212D01*
X005094Y012212D01*
X004563Y012357D02*
X004565Y012396D01*
X004571Y012435D01*
X004580Y012473D01*
X004593Y012510D01*
X004610Y012546D01*
X004630Y012579D01*
X004654Y012611D01*
X004680Y012640D01*
X004709Y012666D01*
X004741Y012690D01*
X004774Y012710D01*
X004810Y012727D01*
X004847Y012740D01*
X004885Y012749D01*
X004924Y012755D01*
X004963Y012757D01*
X005563Y012757D01*
X005524Y012482D02*
X005524Y012212D01*
X005344Y012482D01*
X005563Y012757D02*
X005602Y012755D01*
X005641Y012749D01*
X005679Y012740D01*
X005716Y012727D01*
X005752Y012710D01*
X005785Y012690D01*
X005817Y012666D01*
X005846Y012640D01*
X005872Y012611D01*
X005896Y012579D01*
X005916Y012546D01*
X005933Y012510D01*
X005946Y012473D01*
X005955Y012435D01*
X005961Y012396D01*
X005963Y012357D01*
X005961Y012318D01*
X005955Y012279D01*
X005946Y012241D01*
X005933Y012204D01*
X005916Y012168D01*
X005896Y012135D01*
X005872Y012103D01*
X005846Y012074D01*
X005817Y012048D01*
X005785Y012024D01*
X005752Y012004D01*
X005716Y011987D01*
X005679Y011974D01*
X005641Y011965D01*
X005602Y011959D01*
X005563Y011957D01*
X004963Y011957D02*
X004924Y011959D01*
X004885Y011965D01*
X004847Y011974D01*
X004810Y011987D01*
X004774Y012004D01*
X004741Y012024D01*
X004709Y012048D01*
X004680Y012074D01*
X004654Y012103D01*
X004630Y012135D01*
X004610Y012168D01*
X004593Y012204D01*
X004580Y012241D01*
X004571Y012279D01*
X004565Y012318D01*
X004563Y012357D01*
X003613Y013797D02*
X003615Y013821D01*
X003621Y013845D01*
X003630Y013867D01*
X003643Y013887D01*
X003659Y013905D01*
X003678Y013920D01*
X003699Y013933D01*
X003721Y013941D01*
X003745Y013946D01*
X003769Y013947D01*
X003793Y013944D01*
X003816Y013937D01*
X003838Y013927D01*
X003858Y013913D01*
X003875Y013896D01*
X003890Y013877D01*
X003901Y013856D01*
X003909Y013833D01*
X003913Y013809D01*
X003913Y013785D01*
X003909Y013761D01*
X003901Y013738D01*
X003890Y013717D01*
X003875Y013698D01*
X003858Y013681D01*
X003838Y013667D01*
X003816Y013657D01*
X003793Y013650D01*
X003769Y013647D01*
X003745Y013648D01*
X003721Y013653D01*
X003699Y013661D01*
X003678Y013674D01*
X003659Y013689D01*
X003643Y013707D01*
X003630Y013727D01*
X003621Y013749D01*
X003615Y013773D01*
X003613Y013797D01*
X003463Y013497D02*
X003463Y015697D01*
X007063Y015697D01*
X007063Y013497D01*
X003463Y013497D01*
X003739Y014172D02*
X003693Y014217D01*
X003693Y014397D01*
X003648Y014352D02*
X003739Y014352D01*
X003890Y014352D02*
X003980Y014352D01*
X004025Y014307D01*
X004025Y014172D01*
X003890Y014172D01*
X003845Y014217D01*
X003890Y014262D01*
X004025Y014262D01*
X004140Y014352D02*
X004275Y014352D01*
X004320Y014307D01*
X004320Y014172D01*
X004434Y014082D02*
X004479Y014082D01*
X004524Y014127D01*
X004524Y014352D01*
X004524Y014442D02*
X004524Y014487D01*
X004676Y014352D02*
X004631Y014307D01*
X004631Y014217D01*
X004676Y014172D01*
X004766Y014172D01*
X004811Y014262D02*
X004631Y014262D01*
X004676Y014352D02*
X004766Y014352D01*
X004811Y014307D01*
X004811Y014262D01*
X004925Y014352D02*
X005060Y014352D01*
X005105Y014307D01*
X005105Y014172D01*
X005265Y014217D02*
X005265Y014397D01*
X005220Y014352D02*
X005310Y014352D01*
X005416Y014397D02*
X005416Y014217D01*
X005461Y014172D01*
X005551Y014172D01*
X005596Y014217D01*
X005551Y014262D02*
X005551Y014352D01*
X005461Y014352D01*
X005461Y014262D01*
X005551Y014262D01*
X005596Y014307D01*
X005596Y014397D01*
X005551Y014442D01*
X005461Y014442D01*
X005416Y014397D01*
X005265Y014217D02*
X005310Y014172D01*
X005373Y014822D02*
X005328Y014867D01*
X005328Y014957D01*
X005373Y015002D01*
X005508Y015002D01*
X005623Y014957D02*
X005623Y014867D01*
X005668Y014822D01*
X005758Y014822D01*
X005803Y014912D02*
X005623Y014912D01*
X005623Y014957D02*
X005668Y015002D01*
X005758Y015002D01*
X005803Y014957D01*
X005803Y014912D01*
X005917Y014867D02*
X005962Y014867D01*
X005962Y014822D01*
X005917Y014822D01*
X005917Y014867D01*
X006065Y014822D02*
X006245Y014822D01*
X006155Y014822D02*
X006155Y015092D01*
X006065Y015002D01*
X006359Y014867D02*
X006404Y014867D01*
X006404Y014822D01*
X006359Y014822D01*
X006359Y014867D01*
X006507Y014822D02*
X006687Y014822D01*
X006597Y014822D02*
X006597Y015092D01*
X006507Y015002D01*
X006801Y015092D02*
X006891Y015092D01*
X006891Y014822D01*
X006801Y014822D01*
X006640Y014487D02*
X006640Y014442D01*
X006640Y014352D02*
X006640Y014172D01*
X006595Y014172D02*
X006685Y014172D01*
X006791Y014172D02*
X006881Y014172D01*
X006836Y014172D02*
X006836Y014442D01*
X006791Y014442D01*
X006640Y014352D02*
X006595Y014352D01*
X006480Y014307D02*
X006480Y014172D01*
X006345Y014172D01*
X006300Y014217D01*
X006345Y014262D01*
X006480Y014262D01*
X006480Y014307D02*
X006435Y014352D01*
X006345Y014352D01*
X006186Y014307D02*
X006186Y014172D01*
X006096Y014172D02*
X006096Y014307D01*
X006141Y014352D01*
X006186Y014307D01*
X006096Y014307D02*
X006051Y014352D01*
X006006Y014352D01*
X006006Y014172D01*
X005891Y014172D02*
X005756Y014172D01*
X005711Y014217D01*
X005711Y014307D01*
X005756Y014352D01*
X005891Y014352D01*
X005891Y014127D01*
X005846Y014082D01*
X005801Y014082D01*
X005508Y014822D02*
X005373Y014822D01*
X005214Y014822D02*
X005078Y014822D01*
X005033Y014867D01*
X005078Y014912D01*
X005214Y014912D01*
X005214Y014957D02*
X005214Y014822D01*
X005214Y014957D02*
X005169Y015002D01*
X005078Y015002D01*
X004882Y015092D02*
X004882Y014822D01*
X004837Y014822D02*
X004927Y014822D01*
X004882Y015092D02*
X004837Y015092D01*
X004722Y014957D02*
X004722Y014867D01*
X004677Y014822D01*
X004542Y014822D01*
X004542Y014732D02*
X004542Y015002D01*
X004677Y015002D01*
X004722Y014957D01*
X004436Y014822D02*
X004346Y014822D01*
X004391Y014822D02*
X004391Y015002D01*
X004346Y015002D01*
X004391Y015092D02*
X004391Y015137D01*
X004195Y015092D02*
X004195Y014822D01*
X004150Y014822D02*
X004240Y014822D01*
X004195Y015092D02*
X004150Y015092D01*
X004035Y014957D02*
X004035Y014867D01*
X003990Y014822D01*
X003855Y014822D01*
X003855Y015092D01*
X003855Y015002D02*
X003990Y015002D01*
X004035Y014957D01*
X003749Y015092D02*
X003658Y015092D01*
X003658Y014822D01*
X003749Y014822D01*
X004140Y014352D02*
X004140Y014172D01*
X004925Y014172D02*
X004925Y014352D01*
X005063Y016497D02*
X005463Y016497D01*
X005513Y016672D02*
X005333Y016672D01*
X005513Y016852D01*
X005513Y016897D01*
X005468Y016942D01*
X005378Y016942D01*
X005333Y016897D01*
X005219Y016897D02*
X005219Y016807D01*
X005174Y016762D01*
X005038Y016762D01*
X005038Y016672D02*
X005038Y016942D01*
X005174Y016942D01*
X005219Y016897D01*
X005129Y016762D02*
X005219Y016672D01*
X005063Y017097D02*
X005031Y017112D01*
X004998Y017123D01*
X004964Y017131D01*
X004929Y017136D01*
X004894Y017137D01*
X004860Y017134D01*
X004825Y017128D01*
X004791Y017118D01*
X004759Y017105D01*
X004728Y017089D01*
X004699Y017069D01*
X004672Y017047D01*
X004648Y017022D01*
X004626Y016994D01*
X004607Y016965D01*
X004591Y016933D01*
X004579Y016900D01*
X004570Y016867D01*
X004565Y016832D01*
X004563Y016797D01*
X004565Y016762D01*
X004570Y016727D01*
X004579Y016694D01*
X004591Y016661D01*
X004607Y016629D01*
X004626Y016600D01*
X004648Y016572D01*
X004672Y016547D01*
X004699Y016525D01*
X004728Y016505D01*
X004759Y016489D01*
X004791Y016476D01*
X004825Y016466D01*
X004860Y016460D01*
X004894Y016457D01*
X004929Y016458D01*
X004964Y016463D01*
X004998Y016471D01*
X005031Y016482D01*
X005063Y016497D01*
X005063Y017097D02*
X005463Y017097D01*
X005495Y017112D01*
X005528Y017123D01*
X005562Y017131D01*
X005597Y017136D01*
X005632Y017137D01*
X005666Y017134D01*
X005701Y017128D01*
X005735Y017118D01*
X005767Y017105D01*
X005798Y017089D01*
X005827Y017069D01*
X005854Y017047D01*
X005878Y017022D01*
X005900Y016994D01*
X005919Y016965D01*
X005935Y016933D01*
X005947Y016900D01*
X005956Y016867D01*
X005961Y016832D01*
X005963Y016797D01*
X005961Y016762D01*
X005956Y016727D01*
X005947Y016694D01*
X005935Y016661D01*
X005919Y016629D01*
X005900Y016600D01*
X005878Y016572D01*
X005854Y016547D01*
X005827Y016525D01*
X005798Y016505D01*
X005767Y016489D01*
X005735Y016476D01*
X005701Y016466D01*
X005666Y016460D01*
X005632Y016457D01*
X005597Y016458D01*
X005562Y016463D01*
X005528Y016471D01*
X005495Y016482D01*
X005463Y016497D01*
X006323Y017947D02*
X006323Y018847D01*
X005513Y018882D02*
X005333Y018882D01*
X005513Y019062D01*
X005513Y019107D01*
X005468Y019152D01*
X005378Y019152D01*
X005333Y019107D01*
X005219Y018882D02*
X005038Y018882D01*
X005038Y019152D01*
X004263Y018397D02*
X004265Y018460D01*
X004271Y018522D01*
X004281Y018584D01*
X004294Y018646D01*
X004312Y018706D01*
X004333Y018765D01*
X004358Y018823D01*
X004387Y018879D01*
X004419Y018933D01*
X004454Y018985D01*
X004492Y019034D01*
X004534Y019082D01*
X004578Y019126D01*
X004626Y019168D01*
X004675Y019206D01*
X004727Y019241D01*
X004781Y019273D01*
X004837Y019302D01*
X004895Y019327D01*
X004954Y019348D01*
X005014Y019366D01*
X005076Y019379D01*
X005138Y019389D01*
X005200Y019395D01*
X005263Y019397D01*
X005326Y019395D01*
X005388Y019389D01*
X005450Y019379D01*
X005512Y019366D01*
X005572Y019348D01*
X005631Y019327D01*
X005689Y019302D01*
X005745Y019273D01*
X005799Y019241D01*
X005851Y019206D01*
X005900Y019168D01*
X005948Y019126D01*
X005992Y019082D01*
X006034Y019034D01*
X006072Y018985D01*
X006107Y018933D01*
X006139Y018879D01*
X006168Y018823D01*
X006193Y018765D01*
X006214Y018706D01*
X006232Y018646D01*
X006245Y018584D01*
X006255Y018522D01*
X006261Y018460D01*
X006263Y018397D01*
X006261Y018334D01*
X006255Y018272D01*
X006245Y018210D01*
X006232Y018148D01*
X006214Y018088D01*
X006193Y018029D01*
X006168Y017971D01*
X006139Y017915D01*
X006107Y017861D01*
X006072Y017809D01*
X006034Y017760D01*
X005992Y017712D01*
X005948Y017668D01*
X005900Y017626D01*
X005851Y017588D01*
X005799Y017553D01*
X005745Y017521D01*
X005689Y017492D01*
X005631Y017467D01*
X005572Y017446D01*
X005512Y017428D01*
X005450Y017415D01*
X005388Y017405D01*
X005326Y017399D01*
X005263Y017397D01*
X005200Y017399D01*
X005138Y017405D01*
X005076Y017415D01*
X005014Y017428D01*
X004954Y017446D01*
X004895Y017467D01*
X004837Y017492D01*
X004781Y017521D01*
X004727Y017553D01*
X004675Y017588D01*
X004626Y017626D01*
X004578Y017668D01*
X004534Y017712D01*
X004492Y017760D01*
X004454Y017809D01*
X004419Y017861D01*
X004387Y017915D01*
X004358Y017971D01*
X004333Y018029D01*
X004312Y018088D01*
X004294Y018148D01*
X004281Y018210D01*
X004271Y018272D01*
X004265Y018334D01*
X004263Y018397D01*
X003673Y017697D02*
X003673Y016797D01*
X002853Y017752D02*
X002673Y017752D01*
X002763Y017752D02*
X002763Y018022D01*
X002673Y017932D01*
X002559Y017752D02*
X002378Y017752D01*
X002378Y018022D01*
X001613Y017247D02*
X001615Y017310D01*
X001621Y017372D01*
X001631Y017434D01*
X001644Y017496D01*
X001662Y017556D01*
X001683Y017615D01*
X001708Y017673D01*
X001737Y017729D01*
X001769Y017783D01*
X001804Y017835D01*
X001842Y017884D01*
X001884Y017932D01*
X001928Y017976D01*
X001976Y018018D01*
X002025Y018056D01*
X002077Y018091D01*
X002131Y018123D01*
X002187Y018152D01*
X002245Y018177D01*
X002304Y018198D01*
X002364Y018216D01*
X002426Y018229D01*
X002488Y018239D01*
X002550Y018245D01*
X002613Y018247D01*
X002676Y018245D01*
X002738Y018239D01*
X002800Y018229D01*
X002862Y018216D01*
X002922Y018198D01*
X002981Y018177D01*
X003039Y018152D01*
X003095Y018123D01*
X003149Y018091D01*
X003201Y018056D01*
X003250Y018018D01*
X003298Y017976D01*
X003342Y017932D01*
X003384Y017884D01*
X003422Y017835D01*
X003457Y017783D01*
X003489Y017729D01*
X003518Y017673D01*
X003543Y017615D01*
X003564Y017556D01*
X003582Y017496D01*
X003595Y017434D01*
X003605Y017372D01*
X003611Y017310D01*
X003613Y017247D01*
X003611Y017184D01*
X003605Y017122D01*
X003595Y017060D01*
X003582Y016998D01*
X003564Y016938D01*
X003543Y016879D01*
X003518Y016821D01*
X003489Y016765D01*
X003457Y016711D01*
X003422Y016659D01*
X003384Y016610D01*
X003342Y016562D01*
X003298Y016518D01*
X003250Y016476D01*
X003201Y016438D01*
X003149Y016403D01*
X003095Y016371D01*
X003039Y016342D01*
X002981Y016317D01*
X002922Y016296D01*
X002862Y016278D01*
X002800Y016265D01*
X002738Y016255D01*
X002676Y016249D01*
X002613Y016247D01*
X002550Y016249D01*
X002488Y016255D01*
X002426Y016265D01*
X002364Y016278D01*
X002304Y016296D01*
X002245Y016317D01*
X002187Y016342D01*
X002131Y016371D01*
X002077Y016403D01*
X002025Y016438D01*
X001976Y016476D01*
X001928Y016518D01*
X001884Y016562D01*
X001842Y016610D01*
X001804Y016659D01*
X001769Y016711D01*
X001737Y016765D01*
X001708Y016821D01*
X001683Y016879D01*
X001662Y016938D01*
X001644Y016998D01*
X001631Y017060D01*
X001621Y017122D01*
X001615Y017184D01*
X001613Y017247D01*
X001853Y016205D02*
X002159Y015948D01*
X002034Y015845D02*
X001860Y015638D01*
X001792Y015696D02*
X001929Y015580D01*
X002159Y015948D02*
X002193Y015939D01*
X002226Y015926D01*
X002257Y015911D01*
X002287Y015892D01*
X002314Y015870D01*
X002339Y015845D01*
X002361Y015818D01*
X002381Y015789D01*
X002397Y015758D01*
X002410Y015726D01*
X002420Y015692D01*
X002426Y015658D01*
X002429Y015623D01*
X002428Y015588D01*
X002423Y015553D01*
X002415Y015519D01*
X002404Y015486D01*
X002389Y015454D01*
X002371Y015424D01*
X002349Y015396D01*
X002326Y015371D01*
X002299Y015348D01*
X002271Y015328D01*
X002240Y015310D01*
X002208Y015296D01*
X002175Y015286D01*
X002140Y015279D01*
X002105Y015275D01*
X002070Y015276D01*
X002036Y015279D01*
X002001Y015286D01*
X001968Y015297D01*
X001936Y015311D01*
X001906Y015329D01*
X001877Y015349D01*
X001851Y015372D01*
X001827Y015398D01*
X001806Y015426D01*
X001788Y015456D01*
X001774Y015488D01*
X001467Y015746D01*
X001566Y015885D02*
X001739Y016092D01*
X001843Y016005D01*
X001849Y015942D01*
X001791Y015873D01*
X001727Y015867D01*
X001624Y015954D01*
X001693Y015896D02*
X001704Y015769D01*
X001907Y015833D02*
X002034Y015845D01*
X001853Y016205D02*
X001839Y016237D01*
X001821Y016267D01*
X001800Y016295D01*
X001776Y016321D01*
X001750Y016344D01*
X001721Y016364D01*
X001691Y016382D01*
X001659Y016396D01*
X001626Y016407D01*
X001591Y016414D01*
X001557Y016417D01*
X001522Y016418D01*
X001487Y016414D01*
X001452Y016407D01*
X001419Y016397D01*
X001387Y016383D01*
X001356Y016365D01*
X001328Y016345D01*
X001301Y016322D01*
X001278Y016297D01*
X001256Y016269D01*
X001238Y016239D01*
X001223Y016207D01*
X001212Y016174D01*
X001204Y016140D01*
X001199Y016105D01*
X001198Y016070D01*
X001201Y016035D01*
X001207Y016001D01*
X001217Y015967D01*
X001230Y015935D01*
X001246Y015904D01*
X001266Y015875D01*
X001288Y015848D01*
X001313Y015823D01*
X001340Y015801D01*
X001370Y015782D01*
X001401Y015767D01*
X001434Y015754D01*
X001468Y015745D01*
X001774Y013705D02*
X001467Y013448D01*
X001559Y013317D02*
X001663Y013403D01*
X001726Y013398D01*
X001784Y013329D01*
X001779Y013265D01*
X001675Y013179D01*
X001744Y013236D02*
X001871Y013225D01*
X001959Y013299D02*
X001785Y013506D01*
X001888Y013593D01*
X001952Y013587D01*
X002068Y013449D01*
X002062Y013386D01*
X001959Y013299D01*
X002159Y013246D02*
X001853Y012988D01*
X001733Y013110D02*
X001559Y013317D01*
X001468Y013448D02*
X001434Y013439D01*
X001401Y013426D01*
X001370Y013411D01*
X001340Y013392D01*
X001313Y013370D01*
X001288Y013345D01*
X001266Y013318D01*
X001246Y013289D01*
X001230Y013258D01*
X001217Y013226D01*
X001207Y013192D01*
X001201Y013158D01*
X001198Y013123D01*
X001199Y013088D01*
X001204Y013053D01*
X001212Y013019D01*
X001223Y012986D01*
X001238Y012954D01*
X001256Y012924D01*
X001278Y012896D01*
X001301Y012871D01*
X001328Y012848D01*
X001356Y012828D01*
X001387Y012810D01*
X001419Y012796D01*
X001452Y012786D01*
X001487Y012779D01*
X001522Y012775D01*
X001557Y012776D01*
X001591Y012779D01*
X001626Y012786D01*
X001659Y012797D01*
X001691Y012811D01*
X001721Y012829D01*
X001750Y012849D01*
X001776Y012872D01*
X001800Y012898D01*
X001821Y012926D01*
X001839Y012956D01*
X001853Y012988D01*
X001774Y013705D02*
X001788Y013737D01*
X001806Y013767D01*
X001827Y013795D01*
X001851Y013821D01*
X001877Y013844D01*
X001906Y013864D01*
X001936Y013882D01*
X001968Y013896D01*
X002001Y013907D01*
X002036Y013914D01*
X002070Y013917D01*
X002105Y013918D01*
X002140Y013914D01*
X002175Y013907D01*
X002208Y013897D01*
X002240Y013883D01*
X002271Y013865D01*
X002299Y013845D01*
X002326Y013822D01*
X002349Y013797D01*
X002371Y013769D01*
X002389Y013739D01*
X002404Y013707D01*
X002415Y013674D01*
X002423Y013640D01*
X002428Y013605D01*
X002429Y013570D01*
X002426Y013535D01*
X002420Y013501D01*
X002410Y013467D01*
X002397Y013435D01*
X002381Y013404D01*
X002361Y013375D01*
X002339Y013348D01*
X002314Y013323D01*
X002287Y013301D01*
X002257Y013282D01*
X002226Y013267D01*
X002193Y013254D01*
X002159Y013245D01*
X002344Y012572D02*
X002299Y012527D01*
X002299Y012347D01*
X002344Y012302D01*
X002434Y012302D01*
X002479Y012347D01*
X002594Y012392D02*
X002729Y012392D01*
X002774Y012437D01*
X002774Y012527D01*
X002729Y012572D01*
X002594Y012572D01*
X002594Y012302D01*
X002479Y012527D02*
X002434Y012572D01*
X002344Y012572D01*
X001463Y017247D02*
X001465Y017314D01*
X001471Y017381D01*
X001481Y017447D01*
X001494Y017513D01*
X001512Y017578D01*
X001533Y017641D01*
X001558Y017704D01*
X001586Y017765D01*
X001618Y017824D01*
X001653Y017881D01*
X001692Y017936D01*
X001733Y017988D01*
X001778Y018038D01*
X001826Y018085D01*
X001876Y018130D01*
X001928Y018172D01*
X001983Y018210D01*
X002041Y018245D01*
X002100Y018277D01*
X002161Y018305D01*
X002223Y018330D01*
X002287Y018350D01*
X002352Y018368D01*
X002417Y018381D01*
X002484Y018391D01*
X002551Y018396D01*
X002618Y018398D01*
X002685Y018396D01*
X002751Y018390D01*
X002818Y018380D01*
X002883Y018366D01*
X002948Y018348D01*
X003012Y018327D01*
X003074Y018302D01*
X003135Y018273D01*
X003194Y018241D01*
X003251Y018206D01*
X003305Y018167D01*
X003358Y018125D01*
X003408Y018081D01*
X003455Y018033D01*
X003499Y017983D01*
X003541Y017930D01*
X003579Y017875D01*
X003614Y017817D01*
X003645Y017758D01*
X003673Y017697D01*
X003673Y016797D02*
X003645Y016736D01*
X003614Y016677D01*
X003579Y016619D01*
X003541Y016564D01*
X003499Y016511D01*
X003455Y016461D01*
X003408Y016413D01*
X003358Y016369D01*
X003305Y016327D01*
X003251Y016288D01*
X003194Y016253D01*
X003135Y016221D01*
X003074Y016192D01*
X003012Y016167D01*
X002948Y016146D01*
X002883Y016128D01*
X002818Y016114D01*
X002751Y016104D01*
X002685Y016098D01*
X002618Y016096D01*
X002551Y016098D01*
X002484Y016103D01*
X002417Y016113D01*
X002352Y016126D01*
X002287Y016144D01*
X002223Y016164D01*
X002161Y016189D01*
X002100Y016217D01*
X002041Y016249D01*
X001983Y016284D01*
X001928Y016322D01*
X001876Y016364D01*
X001826Y016408D01*
X001778Y016456D01*
X001733Y016506D01*
X001692Y016558D01*
X001653Y016613D01*
X001618Y016670D01*
X001586Y016729D01*
X001558Y016790D01*
X001533Y016853D01*
X001512Y016916D01*
X001494Y016981D01*
X001481Y017047D01*
X001471Y017113D01*
X001465Y017180D01*
X001463Y017247D01*
X004113Y018397D02*
X004115Y018330D01*
X004121Y018263D01*
X004131Y018197D01*
X004144Y018131D01*
X004162Y018066D01*
X004183Y018003D01*
X004208Y017940D01*
X004236Y017879D01*
X004268Y017820D01*
X004303Y017763D01*
X004342Y017708D01*
X004383Y017656D01*
X004428Y017606D01*
X004476Y017558D01*
X004526Y017514D01*
X004578Y017472D01*
X004633Y017434D01*
X004691Y017399D01*
X004750Y017367D01*
X004811Y017339D01*
X004873Y017314D01*
X004937Y017294D01*
X005002Y017276D01*
X005067Y017263D01*
X005134Y017253D01*
X005201Y017248D01*
X005268Y017246D01*
X005335Y017248D01*
X005401Y017254D01*
X005468Y017264D01*
X005533Y017278D01*
X005598Y017296D01*
X005662Y017317D01*
X005724Y017342D01*
X005785Y017371D01*
X005844Y017403D01*
X005901Y017438D01*
X005955Y017477D01*
X006008Y017519D01*
X006058Y017563D01*
X006105Y017611D01*
X006149Y017661D01*
X006191Y017714D01*
X006229Y017769D01*
X006264Y017827D01*
X006295Y017886D01*
X006323Y017947D01*
X006323Y018847D02*
X006295Y018908D01*
X006264Y018967D01*
X006229Y019025D01*
X006191Y019080D01*
X006149Y019133D01*
X006105Y019183D01*
X006058Y019231D01*
X006008Y019275D01*
X005955Y019317D01*
X005901Y019356D01*
X005844Y019391D01*
X005785Y019423D01*
X005724Y019452D01*
X005662Y019477D01*
X005598Y019498D01*
X005533Y019516D01*
X005468Y019530D01*
X005401Y019540D01*
X005335Y019546D01*
X005268Y019548D01*
X005201Y019546D01*
X005134Y019541D01*
X005067Y019531D01*
X005002Y019518D01*
X004937Y019500D01*
X004873Y019480D01*
X004811Y019455D01*
X004750Y019427D01*
X004691Y019395D01*
X004633Y019360D01*
X004578Y019322D01*
X004526Y019280D01*
X004476Y019235D01*
X004428Y019188D01*
X004383Y019138D01*
X004342Y019086D01*
X004303Y019031D01*
X004268Y018974D01*
X004236Y018915D01*
X004208Y018854D01*
X004183Y018791D01*
X004162Y018728D01*
X004144Y018663D01*
X004131Y018597D01*
X004121Y018531D01*
X004115Y018464D01*
X004113Y018397D01*
X007644Y012622D02*
X007599Y012577D01*
X007599Y012397D01*
X007644Y012352D01*
X007734Y012352D01*
X007779Y012397D01*
X007894Y012397D02*
X007894Y012577D01*
X007939Y012622D01*
X008029Y012622D01*
X008074Y012577D01*
X008074Y012397D02*
X008029Y012352D01*
X007939Y012352D01*
X007894Y012397D01*
X007779Y012577D02*
X007734Y012622D01*
X007644Y012622D01*
X008367Y013246D02*
X008674Y012988D01*
X008746Y013174D02*
X008677Y013232D01*
X008672Y013295D01*
X008817Y013468D01*
X008700Y013507D02*
X008642Y013438D01*
X008579Y013432D01*
X008475Y013519D01*
X008368Y013245D02*
X008334Y013254D01*
X008301Y013267D01*
X008270Y013282D01*
X008240Y013301D01*
X008213Y013323D01*
X008188Y013348D01*
X008166Y013375D01*
X008146Y013404D01*
X008130Y013435D01*
X008117Y013467D01*
X008107Y013501D01*
X008101Y013535D01*
X008098Y013570D01*
X008099Y013605D01*
X008104Y013640D01*
X008112Y013674D01*
X008123Y013707D01*
X008138Y013739D01*
X008156Y013769D01*
X008178Y013797D01*
X008417Y013450D02*
X008591Y013657D01*
X008694Y013570D01*
X008700Y013507D01*
X008544Y013461D02*
X008555Y013335D01*
X008753Y013705D02*
X008739Y013737D01*
X008721Y013767D01*
X008700Y013795D01*
X008676Y013821D01*
X008650Y013844D01*
X008621Y013864D01*
X008591Y013882D01*
X008559Y013896D01*
X008526Y013907D01*
X008491Y013914D01*
X008457Y013917D01*
X008422Y013918D01*
X008387Y013914D01*
X008352Y013907D01*
X008319Y013897D01*
X008287Y013883D01*
X008256Y013865D01*
X008228Y013845D01*
X008201Y013822D01*
X008178Y013797D01*
X008753Y013705D02*
X009059Y013448D01*
X008955Y013352D02*
X008810Y013180D01*
X008746Y013174D01*
X008674Y012988D02*
X008688Y012956D01*
X008706Y012926D01*
X008727Y012898D01*
X008751Y012872D01*
X008777Y012849D01*
X008806Y012829D01*
X008836Y012811D01*
X008868Y012797D01*
X008901Y012786D01*
X008936Y012779D01*
X008970Y012776D01*
X009005Y012775D01*
X009040Y012779D01*
X009075Y012786D01*
X009108Y012796D01*
X009140Y012810D01*
X009171Y012828D01*
X009199Y012848D01*
X009226Y012871D01*
X009249Y012896D01*
X009271Y012924D01*
X009289Y012954D01*
X009304Y012986D01*
X009315Y013019D01*
X009323Y013053D01*
X009328Y013088D01*
X009329Y013123D01*
X009326Y013158D01*
X009320Y013192D01*
X009310Y013226D01*
X009297Y013258D01*
X009281Y013289D01*
X009261Y013318D01*
X009239Y013345D01*
X009214Y013370D01*
X009187Y013392D01*
X009157Y013411D01*
X009126Y013426D01*
X009093Y013439D01*
X009059Y013448D01*
X008753Y015488D02*
X009059Y015746D01*
X009059Y015745D02*
X009093Y015754D01*
X009126Y015767D01*
X009157Y015782D01*
X009187Y015801D01*
X009214Y015823D01*
X009239Y015848D01*
X009261Y015875D01*
X009281Y015904D01*
X009297Y015935D01*
X009310Y015967D01*
X009320Y016001D01*
X009326Y016035D01*
X009329Y016070D01*
X009328Y016105D01*
X009323Y016140D01*
X009315Y016174D01*
X009304Y016207D01*
X009289Y016239D01*
X009271Y016269D01*
X009249Y016297D01*
X009226Y016322D01*
X009199Y016345D01*
X009171Y016365D01*
X009140Y016383D01*
X009108Y016397D01*
X009075Y016407D01*
X009040Y016414D01*
X009005Y016418D01*
X008970Y016417D01*
X008936Y016414D01*
X008901Y016407D01*
X008868Y016396D01*
X008836Y016382D01*
X008806Y016364D01*
X008777Y016344D01*
X008751Y016321D01*
X008727Y016295D01*
X008706Y016267D01*
X008688Y016237D01*
X008674Y016205D01*
X008367Y015948D01*
X008491Y015817D02*
X008387Y015730D01*
X008561Y015523D01*
X008503Y015592D02*
X008606Y015679D01*
X008612Y015743D01*
X008554Y015812D01*
X008491Y015817D01*
X008572Y015650D02*
X008699Y015639D01*
X008758Y015747D02*
X008821Y015742D01*
X008890Y015800D01*
X008895Y015863D01*
X008867Y015897D01*
X008803Y015903D01*
X008769Y015874D01*
X008803Y015903D02*
X008809Y015966D01*
X008780Y016001D01*
X008716Y016006D01*
X008647Y015949D01*
X008642Y015885D01*
X008753Y015488D02*
X008739Y015456D01*
X008721Y015426D01*
X008700Y015398D01*
X008676Y015372D01*
X008650Y015349D01*
X008621Y015329D01*
X008591Y015311D01*
X008559Y015297D01*
X008526Y015286D01*
X008491Y015279D01*
X008457Y015276D01*
X008422Y015275D01*
X008387Y015279D01*
X008352Y015286D01*
X008319Y015296D01*
X008287Y015310D01*
X008256Y015328D01*
X008228Y015348D01*
X008201Y015371D01*
X008178Y015396D01*
X008156Y015424D01*
X008138Y015454D01*
X008123Y015486D01*
X008112Y015519D01*
X008104Y015553D01*
X008099Y015588D01*
X008098Y015623D01*
X008101Y015658D01*
X008107Y015692D01*
X008117Y015726D01*
X008130Y015758D01*
X008146Y015789D01*
X008166Y015818D01*
X008188Y015845D01*
X008213Y015870D01*
X008240Y015892D01*
X008270Y015911D01*
X008301Y015926D01*
X008334Y015939D01*
X008368Y015948D01*
X008973Y016797D02*
X008973Y017697D01*
X008163Y017757D02*
X008118Y017712D01*
X008028Y017712D01*
X007983Y017757D01*
X007869Y017712D02*
X007688Y017712D01*
X007688Y017982D01*
X007983Y017937D02*
X008028Y017982D01*
X008118Y017982D01*
X008163Y017937D01*
X008163Y017892D01*
X008118Y017847D01*
X008163Y017802D01*
X008163Y017757D01*
X008118Y017847D02*
X008073Y017847D01*
X008973Y016797D02*
X008945Y016736D01*
X008914Y016677D01*
X008879Y016619D01*
X008841Y016564D01*
X008799Y016511D01*
X008755Y016461D01*
X008708Y016413D01*
X008658Y016369D01*
X008605Y016327D01*
X008551Y016288D01*
X008494Y016253D01*
X008435Y016221D01*
X008374Y016192D01*
X008312Y016167D01*
X008248Y016146D01*
X008183Y016128D01*
X008118Y016114D01*
X008051Y016104D01*
X007985Y016098D01*
X007918Y016096D01*
X007851Y016098D01*
X007784Y016103D01*
X007717Y016113D01*
X007652Y016126D01*
X007587Y016144D01*
X007523Y016164D01*
X007461Y016189D01*
X007400Y016217D01*
X007341Y016249D01*
X007283Y016284D01*
X007228Y016322D01*
X007176Y016364D01*
X007126Y016408D01*
X007078Y016456D01*
X007033Y016506D01*
X006992Y016558D01*
X006953Y016613D01*
X006918Y016670D01*
X006886Y016729D01*
X006858Y016790D01*
X006833Y016853D01*
X006812Y016916D01*
X006794Y016981D01*
X006781Y017047D01*
X006771Y017113D01*
X006765Y017180D01*
X006763Y017247D01*
X006913Y017247D02*
X006915Y017310D01*
X006921Y017372D01*
X006931Y017434D01*
X006944Y017496D01*
X006962Y017556D01*
X006983Y017615D01*
X007008Y017673D01*
X007037Y017729D01*
X007069Y017783D01*
X007104Y017835D01*
X007142Y017884D01*
X007184Y017932D01*
X007228Y017976D01*
X007276Y018018D01*
X007325Y018056D01*
X007377Y018091D01*
X007431Y018123D01*
X007487Y018152D01*
X007545Y018177D01*
X007604Y018198D01*
X007664Y018216D01*
X007726Y018229D01*
X007788Y018239D01*
X007850Y018245D01*
X007913Y018247D01*
X007976Y018245D01*
X008038Y018239D01*
X008100Y018229D01*
X008162Y018216D01*
X008222Y018198D01*
X008281Y018177D01*
X008339Y018152D01*
X008395Y018123D01*
X008449Y018091D01*
X008501Y018056D01*
X008550Y018018D01*
X008598Y017976D01*
X008642Y017932D01*
X008684Y017884D01*
X008722Y017835D01*
X008757Y017783D01*
X008789Y017729D01*
X008818Y017673D01*
X008843Y017615D01*
X008864Y017556D01*
X008882Y017496D01*
X008895Y017434D01*
X008905Y017372D01*
X008911Y017310D01*
X008913Y017247D01*
X008911Y017184D01*
X008905Y017122D01*
X008895Y017060D01*
X008882Y016998D01*
X008864Y016938D01*
X008843Y016879D01*
X008818Y016821D01*
X008789Y016765D01*
X008757Y016711D01*
X008722Y016659D01*
X008684Y016610D01*
X008642Y016562D01*
X008598Y016518D01*
X008550Y016476D01*
X008501Y016438D01*
X008449Y016403D01*
X008395Y016371D01*
X008339Y016342D01*
X008281Y016317D01*
X008222Y016296D01*
X008162Y016278D01*
X008100Y016265D01*
X008038Y016255D01*
X007976Y016249D01*
X007913Y016247D01*
X007850Y016249D01*
X007788Y016255D01*
X007726Y016265D01*
X007664Y016278D01*
X007604Y016296D01*
X007545Y016317D01*
X007487Y016342D01*
X007431Y016371D01*
X007377Y016403D01*
X007325Y016438D01*
X007276Y016476D01*
X007228Y016518D01*
X007184Y016562D01*
X007142Y016610D01*
X007104Y016659D01*
X007069Y016711D01*
X007037Y016765D01*
X007008Y016821D01*
X006983Y016879D01*
X006962Y016938D01*
X006944Y016998D01*
X006931Y017060D01*
X006921Y017122D01*
X006915Y017184D01*
X006913Y017247D01*
X006763Y017247D02*
X006765Y017314D01*
X006771Y017381D01*
X006781Y017447D01*
X006794Y017513D01*
X006812Y017578D01*
X006833Y017641D01*
X006858Y017704D01*
X006886Y017765D01*
X006918Y017824D01*
X006953Y017881D01*
X006992Y017936D01*
X007033Y017988D01*
X007078Y018038D01*
X007126Y018085D01*
X007176Y018130D01*
X007228Y018172D01*
X007283Y018210D01*
X007341Y018245D01*
X007400Y018277D01*
X007461Y018305D01*
X007523Y018330D01*
X007587Y018350D01*
X007652Y018368D01*
X007717Y018381D01*
X007784Y018391D01*
X007851Y018396D01*
X007918Y018398D01*
X007985Y018396D01*
X008051Y018390D01*
X008118Y018380D01*
X008183Y018366D01*
X008248Y018348D01*
X008312Y018327D01*
X008374Y018302D01*
X008435Y018273D01*
X008494Y018241D01*
X008551Y018206D01*
X008605Y018167D01*
X008658Y018125D01*
X008708Y018081D01*
X008755Y018033D01*
X008799Y017983D01*
X008841Y017930D01*
X008879Y017875D01*
X008914Y017817D01*
X008945Y017758D01*
X008973Y017697D01*
D11*
X009063Y014597D02*
X009363Y014597D01*
X008263Y014597D02*
X007313Y014597D01*
X006929Y011947D02*
X006931Y012009D01*
X006937Y012072D01*
X006947Y012133D01*
X006961Y012194D01*
X006978Y012254D01*
X006999Y012313D01*
X007025Y012370D01*
X007053Y012425D01*
X007085Y012479D01*
X007121Y012530D01*
X007159Y012580D01*
X007201Y012626D01*
X007245Y012670D01*
X007293Y012711D01*
X007342Y012749D01*
X007394Y012783D01*
X007448Y012814D01*
X007504Y012842D01*
X007562Y012866D01*
X007621Y012887D01*
X007681Y012903D01*
X007742Y012916D01*
X007804Y012925D01*
X007866Y012930D01*
X007929Y012931D01*
X007991Y012928D01*
X008053Y012921D01*
X008115Y012910D01*
X008175Y012895D01*
X008235Y012877D01*
X008293Y012855D01*
X008350Y012829D01*
X008405Y012799D01*
X008458Y012766D01*
X008509Y012730D01*
X008557Y012691D01*
X008603Y012648D01*
X008646Y012603D01*
X008686Y012555D01*
X008723Y012505D01*
X008757Y012452D01*
X008788Y012398D01*
X008814Y012342D01*
X008838Y012284D01*
X008857Y012224D01*
X008873Y012164D01*
X008885Y012102D01*
X008893Y012041D01*
X008897Y011978D01*
X008897Y011916D01*
X008893Y011853D01*
X008885Y011792D01*
X008873Y011730D01*
X008857Y011670D01*
X008838Y011610D01*
X008814Y011552D01*
X008788Y011496D01*
X008757Y011442D01*
X008723Y011389D01*
X008686Y011339D01*
X008646Y011291D01*
X008603Y011246D01*
X008557Y011203D01*
X008509Y011164D01*
X008458Y011128D01*
X008405Y011095D01*
X008350Y011065D01*
X008293Y011039D01*
X008235Y011017D01*
X008175Y010999D01*
X008115Y010984D01*
X008053Y010973D01*
X007991Y010966D01*
X007929Y010963D01*
X007866Y010964D01*
X007804Y010969D01*
X007742Y010978D01*
X007681Y010991D01*
X007621Y011007D01*
X007562Y011028D01*
X007504Y011052D01*
X007448Y011080D01*
X007394Y011111D01*
X007342Y011145D01*
X007293Y011183D01*
X007245Y011224D01*
X007201Y011268D01*
X007159Y011314D01*
X007121Y011364D01*
X007085Y011415D01*
X007053Y011469D01*
X007025Y011524D01*
X006999Y011581D01*
X006978Y011640D01*
X006961Y011700D01*
X006947Y011761D01*
X006937Y011822D01*
X006931Y011885D01*
X006929Y011947D01*
X006363Y011847D02*
X006763Y010847D01*
X008233Y011407D02*
X008493Y011407D01*
X008363Y011287D02*
X008363Y011537D01*
X006363Y017347D02*
X006763Y018297D01*
X004163Y017347D02*
X003763Y018347D01*
X003213Y014597D02*
X002463Y014597D01*
X002413Y014597D01*
X002263Y014597D01*
X001463Y014597D02*
X001363Y014597D01*
X001629Y011947D02*
X001631Y012009D01*
X001637Y012072D01*
X001647Y012133D01*
X001661Y012194D01*
X001678Y012254D01*
X001699Y012313D01*
X001725Y012370D01*
X001753Y012425D01*
X001785Y012479D01*
X001821Y012530D01*
X001859Y012580D01*
X001901Y012626D01*
X001945Y012670D01*
X001993Y012711D01*
X002042Y012749D01*
X002094Y012783D01*
X002148Y012814D01*
X002204Y012842D01*
X002262Y012866D01*
X002321Y012887D01*
X002381Y012903D01*
X002442Y012916D01*
X002504Y012925D01*
X002566Y012930D01*
X002629Y012931D01*
X002691Y012928D01*
X002753Y012921D01*
X002815Y012910D01*
X002875Y012895D01*
X002935Y012877D01*
X002993Y012855D01*
X003050Y012829D01*
X003105Y012799D01*
X003158Y012766D01*
X003209Y012730D01*
X003257Y012691D01*
X003303Y012648D01*
X003346Y012603D01*
X003386Y012555D01*
X003423Y012505D01*
X003457Y012452D01*
X003488Y012398D01*
X003514Y012342D01*
X003538Y012284D01*
X003557Y012224D01*
X003573Y012164D01*
X003585Y012102D01*
X003593Y012041D01*
X003597Y011978D01*
X003597Y011916D01*
X003593Y011853D01*
X003585Y011792D01*
X003573Y011730D01*
X003557Y011670D01*
X003538Y011610D01*
X003514Y011552D01*
X003488Y011496D01*
X003457Y011442D01*
X003423Y011389D01*
X003386Y011339D01*
X003346Y011291D01*
X003303Y011246D01*
X003257Y011203D01*
X003209Y011164D01*
X003158Y011128D01*
X003105Y011095D01*
X003050Y011065D01*
X002993Y011039D01*
X002935Y011017D01*
X002875Y010999D01*
X002815Y010984D01*
X002753Y010973D01*
X002691Y010966D01*
X002629Y010963D01*
X002566Y010964D01*
X002504Y010969D01*
X002442Y010978D01*
X002381Y010991D01*
X002321Y011007D01*
X002262Y011028D01*
X002204Y011052D01*
X002148Y011080D01*
X002094Y011111D01*
X002042Y011145D01*
X001993Y011183D01*
X001945Y011224D01*
X001901Y011268D01*
X001859Y011314D01*
X001821Y011364D01*
X001785Y011415D01*
X001753Y011469D01*
X001725Y011524D01*
X001699Y011581D01*
X001678Y011640D01*
X001661Y011700D01*
X001647Y011761D01*
X001637Y011822D01*
X001631Y011885D01*
X001629Y011947D01*
X002933Y011407D02*
X003193Y011407D01*
X003063Y011287D02*
X003063Y011537D01*
X003763Y010847D02*
X004163Y011847D01*
D12*
X004121Y010767D02*
X004123Y010834D01*
X004129Y010901D01*
X004139Y010967D01*
X004152Y011033D01*
X004170Y011098D01*
X004191Y011161D01*
X004216Y011223D01*
X004245Y011284D01*
X004277Y011343D01*
X004312Y011400D01*
X004351Y011454D01*
X004393Y011507D01*
X004438Y011557D01*
X004486Y011604D01*
X004536Y011648D01*
X004589Y011689D01*
X004644Y011727D01*
X004702Y011762D01*
X004761Y011793D01*
X004822Y011820D01*
X004885Y011845D01*
X004949Y011865D01*
X005014Y011881D01*
X005079Y011894D01*
X005146Y011903D01*
X005213Y011908D01*
X005280Y011909D01*
X005347Y011906D01*
X005413Y011899D01*
X005480Y011888D01*
X005545Y011874D01*
X005610Y011855D01*
X005673Y011833D01*
X005735Y011807D01*
X005795Y011778D01*
X005853Y011745D01*
X005910Y011708D01*
X005964Y011669D01*
X006015Y011626D01*
X006065Y011580D01*
X006111Y011532D01*
X006154Y011481D01*
X006195Y011427D01*
X006232Y011372D01*
X006266Y011314D01*
X006296Y011254D01*
X006323Y011192D01*
X006346Y011129D01*
X006365Y011065D01*
X006381Y011000D01*
X006393Y010934D01*
X006401Y010867D01*
X006405Y010801D01*
X006405Y010733D01*
X006401Y010667D01*
X006393Y010600D01*
X006381Y010534D01*
X006365Y010469D01*
X006346Y010405D01*
X006323Y010342D01*
X006296Y010280D01*
X006266Y010220D01*
X006232Y010162D01*
X006195Y010107D01*
X006154Y010053D01*
X006111Y010002D01*
X006065Y009954D01*
X006015Y009908D01*
X005964Y009865D01*
X005910Y009826D01*
X005853Y009789D01*
X005795Y009756D01*
X005735Y009727D01*
X005673Y009701D01*
X005610Y009679D01*
X005545Y009660D01*
X005480Y009646D01*
X005413Y009635D01*
X005347Y009628D01*
X005280Y009625D01*
X005213Y009626D01*
X005146Y009631D01*
X005079Y009640D01*
X005014Y009653D01*
X004949Y009669D01*
X004885Y009689D01*
X004822Y009714D01*
X004761Y009741D01*
X004702Y009772D01*
X004644Y009807D01*
X004589Y009845D01*
X004536Y009886D01*
X004486Y009930D01*
X004438Y009977D01*
X004393Y010027D01*
X004351Y010080D01*
X004312Y010134D01*
X004277Y010191D01*
X004245Y010250D01*
X004216Y010311D01*
X004191Y010373D01*
X004170Y010436D01*
X004152Y010501D01*
X004139Y010567D01*
X004129Y010633D01*
X004123Y010700D01*
X004121Y010767D01*
M02*
