G75*
G70*
%OFA0B0*%
%FSLAX24Y24*%
%IPPOS*%
%LPD*%
%AMOC8*
5,1,8,0,0,1.08239X$1,22.5*
%
%ADD10R,0.0596X0.0596*%
%ADD11C,0.0596*%
%ADD12R,0.0710X0.0710*%
%ADD13C,0.0710*%
%ADD14C,0.0570*%
%ADD15C,0.0965*%
%ADD16C,0.0720*%
%ADD17C,0.0556*%
%ADD18C,0.0740*%
%ADD19C,0.1025*%
D10*
X003113Y011947D03*
X008413Y011947D03*
D11*
X007413Y011947D03*
X002113Y011947D03*
D12*
X003763Y013097D03*
X002113Y017247D03*
X004763Y018397D03*
X007413Y017247D03*
D13*
X006763Y016097D03*
X005763Y016097D03*
X004763Y016097D03*
X003763Y016097D03*
X003113Y017247D03*
X004763Y013097D03*
X005763Y013097D03*
X006763Y013097D03*
X008413Y017247D03*
X005763Y018397D03*
D14*
X006263Y016797D03*
X007947Y015204D03*
X007947Y013990D03*
X009479Y012704D03*
X009479Y016490D03*
X006263Y012357D03*
X004263Y012357D03*
X002579Y013990D03*
X002579Y015204D03*
X001047Y016490D03*
X001047Y012704D03*
X004263Y016797D03*
D15*
X000863Y014597D03*
D16*
X008663Y014597D03*
D17*
X005637Y011161D03*
X004889Y011161D03*
D18*
X001863Y014597D03*
X000763Y015597D03*
X000763Y013597D03*
X009763Y013597D03*
X009763Y014597D03*
X009763Y015597D03*
D19*
X003513Y010217D03*
X007013Y010217D03*
X007013Y018977D03*
X003513Y018977D03*
M02*
